<?xml version="1.0" encoding="utf-8"?>
<!-- Generator: Adobe Illustrator 26.0.2, SVG Export Plug-In . SVG Version: 6.00 Build 0)  -->
<svg version="1.1" id="Layer_1" xmlns="http://www.w3.org/2000/svg" xmlns:xlink="http://www.w3.org/1999/xlink" x="0px" y="0px"
	 viewBox="0 0 1000 315.7" style="enable-background:new 0 0 1000 315.7;" xml:space="preserve">
<style type="text/css">
	.st0{fill:#363533;}
</style>
<g>
	<path class="st0" d="M275,82.7h-24.8C248,66,240.1,57.7,226.5,57.7c-8.7,0-15.3,2.1-19.8,6.3c-4.5,4.2-6.7,10.5-6.7,18.9
		c0,6.3,2.5,12.1,7.4,17.6l53,59.5c9.7,10.9,14.6,22.7,14.6,35.3v12.6c0,13.5-4.9,25.2-14.6,35.1c-9.2,9.7-22,15.1-35.3,14.9H200
		c-16.6,0-29-4.2-37.4-12.5c-8.4-8.4-12.5-20.8-12.5-37.5h25.1c-0.2,1.7-0.2,3.1-0.2,4.1c0,6.8,2.6,12,7.9,15.5
		c5.1,3.5,11.1,5.3,17.2,5.3c8.9,0,15.3-2.1,19.2-6.4c3.9-4.3,5.9-10.5,5.9-18.8c0-6.3-2.5-12.2-7.4-17.6l-53-59.3
		c-9.8-10.9-14.6-22.6-14.6-35.3V82.7c0-13.6,4.9-25.3,14.6-35.1c9.2-9.6,22-14.9,35.3-14.7h25.1C256.4,32.9,273,49.5,275,82.7z"/>
	<path class="st0" d="M412.6,257.9h-37.5c-27.5-0.2-49.8-22.5-49.9-50V82.7c0.2-27.5,22.4-49.7,49.9-49.9h50.2
		c13.7,0,25.4,4.9,35.2,14.8c9.8,9.8,14.7,21.6,14.7,35.1v125.1c0,29.5-16.6,46.1-49.9,49.9h49.9v25.1h-37.5
		C422.9,282.9,414.5,274.5,412.6,257.9z M375.1,82.8v125.1c0,13.9,11.2,25.1,25.1,25.1c13.9,0,25.1-11.2,25.1-25.1V82.7
		c0.1-6.6-2.6-13-7.5-17.5c-9.8-9.7-25.6-9.7-35.3,0C377.7,69.8,375,76.1,375.1,82.8L375.1,82.8z"/>
	<path class="st0" d="M625.2,32.9h49.9v175c0,13.5-4.9,25.2-14.7,35.1c-9.8,9.9-21.5,14.8-35.2,14.9H575
		c-27.5-0.2-49.8-22.5-49.9-50v-175H575v175c0,13.9,11.3,25.1,25.1,25.1c13.8,0,25-11.2,25.1-25.1V32.9z"/>
	<path class="st0" d="M849.9,82.7h-24.8C822.9,66,815,57.7,801.4,57.7c-8.7,0-15.3,2.1-19.8,6.3c-4.5,4.2-6.7,10.5-6.7,18.9
		c0,6.3,2.5,12.1,7.4,17.6l53,59.5c9.8,10.9,14.6,22.7,14.7,35.3v12.6c0,13.5-4.9,25.2-14.7,35.1c-9.2,9.7-22,15.1-35.3,14.9h-25.1
		c-16.6,0-29-4.2-37.4-12.5c-8.4-8.4-12.5-20.8-12.5-37.5h25.1c-0.2,1.7-0.2,3.1-0.2,4.1c0,6.8,2.6,12,7.8,15.5
		c5.1,3.5,11.1,5.3,17.2,5.3c8.9,0,15.3-2.1,19.2-6.4s5.9-10.5,5.9-18.7c0-6.3-2.5-12.2-7.4-17.6l-53-59.3
		c-9.7-10.9-14.6-22.6-14.6-35.3V82.7c0-13.6,4.9-25.3,14.6-35.1c9.2-9.6,22-14.9,35.3-14.7H800C831.3,32.9,847.9,49.5,849.9,82.7z"
		/>
</g>
</svg>
